HIERARCHY
ROOT SpineBase
{
  OFFSET 0.000000 0.000000 0.000000
  CHANNELS 6 Xposition Yposition Zposition Zrotation Xrotation Yrotation
  JOINT SpineMid
  {
    OFFSET 0.000000 31.485755 0.000000
    CHANNELS 3 Zrotation Xrotation Yrotation
    JOINT SpineShoulder
    {
      OFFSET 0.060988 23.353425 -0.670488
      CHANNELS 3 Zrotation Xrotation Yrotation
      JOINT Neck
      {
        OFFSET 0.077102 7.740954 -0.537272
        CHANNELS 3 Zrotation Xrotation Yrotation
        JOINT Head
        {
          OFFSET 5.077327 13.216406 4.587051
          CHANNELS 3 Zrotation Xrotation Yrotation
          End Site
          {
            OFFSET 0 0 0
          }
        }
      }
      JOINT ShoulderLeft
      {
        OFFSET -11.662687 -2.260861 -11.508144
        CHANNELS 3 Zrotation Xrotation Yrotation
        JOINT ElbowLeft
        {
          OFFSET -6.617812 -24.433660 -6.422415
          CHANNELS 3 Zrotation Xrotation Yrotation
          JOINT WristLeft
          {
            OFFSET -0.908741 -21.591961 -5.682071
            CHANNELS 3 Zrotation Xrotation Yrotation
            JOINT HandLeft
            {
              OFFSET -0.020801 -8.379174 1.918600
              CHANNELS 3 Zrotation Xrotation Yrotation
              JOINT HandTipLeft
              {
                OFFSET -0.949683 -8.169971 -0.899038
                CHANNELS 3 Zrotation Xrotation Yrotation
                End Site
                {
                  OFFSET 0 0 0
                }
              }
              JOINT ThumbLeft
              {
                OFFSET 5.723702 1.114121 4.322110
                CHANNELS 3 Zrotation Xrotation Yrotation
                End Site
                {
                  OFFSET 0 0 0
                }
              }
            }
          }
        }
      }
      JOINT ShoulderRight
      {
        OFFSET 11.749315 -3.286891 11.784203
        CHANNELS 3 Zrotation Xrotation Yrotation
        JOINT ElbowRight
        {
          OFFSET 2.559966 -26.979159 3.808019
          CHANNELS 3 Zrotation Xrotation Yrotation
          JOINT WristRight
          {
            OFFSET 0.965083 -24.680965 -1.954508
            CHANNELS 3 Zrotation Xrotation Yrotation
            JOINT HandRight
            {
              OFFSET -0.931286 -7.878872 0.641449
              CHANNELS 3 Zrotation Xrotation Yrotation
              JOINT HandTipRight
              {
                OFFSET -0.836256 -7.195709 -0.369961
                CHANNELS 3 Zrotation Xrotation Yrotation
                End Site
                {
                  OFFSET 0 0 0
                }
              }
              JOINT ThumbRight
              {
                OFFSET 2.040747 -2.711613 -1.759888
                CHANNELS 3 Zrotation Xrotation Yrotation
                End Site
                {
                  OFFSET 0 0 0
                }
              }
            }
          }
        }
      }
    }
  }
  JOINT HipLeft
  {
    OFFSET -4.628137 1.730821 -7.753208
    CHANNELS 3 Zrotation Xrotation Yrotation
    JOINT KneeLeft
    {
      OFFSET -11.872196 -34.677975 -5.452550
      CHANNELS 3 Zrotation Xrotation Yrotation
      JOINT AnkleLeft
      {
        OFFSET -7.690494 -39.218106 5.558631
        CHANNELS 3 Zrotation Xrotation Yrotation
        JOINT FootLeft
        {
          OFFSET 1.166156 -7.748599 -6.768992
          CHANNELS 3 Zrotation Xrotation Yrotation
          End Site
          {
            OFFSET 0 0 0
          }
        }
      }
    }
  }
  JOINT HipRight
  {
    OFFSET 5.291364 0.174052 0.840491
    CHANNELS 3 Zrotation Xrotation Yrotation
    JOINT KneeRight
    {
      OFFSET -5.917627 -38.109771 0.961014
      CHANNELS 3 Zrotation Xrotation Yrotation
      JOINT AnkleRight
      {
        OFFSET -8.980460 -35.829474 7.975192
        CHANNELS 3 Zrotation Xrotation Yrotation
        JOINT FootRight
        {
          OFFSET 1.844774 -8.292850 -4.675914
          CHANNELS 3 Zrotation Xrotation Yrotation
          End Site
          {
            OFFSET 0 0 0
          }
        }
      }
    }
  }
}
MOTION
Frames: 15
Frame Time: 0.033333
-33.380404 83.521799 340.960386 -0.000000 0.000000 -40.903819 -0.000000 0.000000 40.903819 -0.000000 0.000000 0.000000 -0.000000 0.000000 0.000000 0.000000 0.000000 0.000000 -0.000000 0.000000 0.000000 -0.000000 0.000000 0.000000 -0.000000 0.000000 0.000000 -0.000000 0.000000 0.000000 0.000000 0.000000 0.000000 0.000000 0.000000 0.000000 -0.000000 0.000000 0.000000 -0.000000 0.000000 0.000000 -0.000000 0.000000 0.000000 -0.000000 0.000000 0.000000 0.000000 0.000000 0.000000 0.000000 0.000000 0.000000 -0.000000 0.000000 40.903819 -0.000000 0.000000 0.000000 -0.000000 0.000000 0.000000 0.000000 0.000000 0.000000 -0.000000 0.000000 40.903819 -0.000000 0.000000 0.000000 -0.000000 0.000000 0.000000 0.000000 0.000000 0.000000
-33.456189 83.456778 340.979733 -0.137188 0.029373 -40.675676 0.123189 0.067138 40.675639 -0.000000 0.000000 0.000000 -0.000000 0.000000 0.000000 0.000000 0.000000 0.000000 -0.000000 0.000000 0.000000 -0.000000 0.000000 0.000000 1.205780 0.800491 0.266122 -1.209601 -0.794705 -0.282935 0.000000 0.000000 0.000000 0.000000 0.000000 0.000000 -0.000000 0.000000 0.000000 -0.000000 0.000000 0.000000 -0.000000 0.000000 0.000000 -2.747202 0.494457 0.095377 0.000000 0.000000 0.000000 0.000000 0.000000 0.000000 0.123189 0.067138 40.675639 -0.000000 0.000000 0.000000 -0.000000 0.000000 0.000000 0.000000 0.000000 0.000000 0.123189 0.067138 40.675639 -0.000000 0.000000 0.000000 0.973888 1.153430 -0.300078 0.000000 0.000000 0.000000
-33.516955 83.405099 341.002726 -0.254493 0.054927 -40.498419 0.229194 0.123507 40.498294 -0.000000 0.000000 0.000000 -0.000000 0.000000 0.000000 0.000000 0.000000 0.000000 -0.000000 0.000000 0.000000 -0.000000 0.000000 0.000000 2.456272 1.674811 0.524218 -1.344218 -2.087001 -0.634257 0.000000 0.000000 0.000000 0.000000 0.000000 0.000000 -0.000000 0.000000 0.000000 -0.000000 0.000000 0.000000 0.592922 1.286071 -0.110571 -5.500148 -0.465228 0.177718 0.000000 0.000000 0.000000 0.000000 0.000000 0.000000 0.229194 0.123507 40.498294 -0.000000 0.000000 0.000000 -0.000000 0.000000 0.000000 0.000000 0.000000 0.000000 0.229194 0.123507 40.498294 -0.000000 0.000000 0.000000 1.782309 2.128878 -0.556757 0.000000 0.000000 0.000000
-33.562703 83.366762 341.029366 -0.352032 0.076685 -40.372488 0.317869 0.169608 40.372253 -0.000000 0.000000 0.000000 -0.000000 0.000000 0.000000 0.000000 0.000000 0.000000 -0.813077 -0.030605 0.221384 0.813189 0.027460 -0.221796 3.740813 2.615935 0.768981 -1.840512 -3.317032 -0.969699 0.000000 0.000000 0.000000 0.000000 0.000000 0.000000 -0.000000 0.000000 0.000000 -0.000000 0.000000 0.000000 1.121015 1.962422 -0.160322 -7.683553 -0.953774 0.172803 0.000000 0.000000 0.000000 0.000000 0.000000 0.000000 0.317869 0.169608 40.372253 -0.000000 0.000000 0.000000 -0.646151 0.171793 0.591014 0.000000 0.000000 0.000000 0.317869 0.169608 40.372253 -0.000000 0.000000 0.000000 2.427273 2.933349 -0.763665 0.000000 0.000000 0.000000
-33.593431 83.341767 341.059651 -0.429896 0.094666 -40.298160 0.389104 0.205841 40.297817 -0.000000 0.000000 0.000000 -0.000000 0.000000 0.000000 0.000000 0.000000 0.000000 -0.965100 -0.031393 0.261344 0.965233 0.026987 -0.261836 5.048029 3.615202 0.995493 -2.207735 -4.663235 -1.300879 0.000000 0.000000 0.000000 0.000000 0.000000 0.000000 -0.000000 0.000000 0.000000 -0.000000 0.000000 0.000000 1.805502 2.673391 -0.211978 -9.578900 -1.603303 0.110094 0.000000 0.000000 0.000000 0.000000 0.000000 0.000000 0.389104 0.205841 40.297817 -0.000000 0.000000 0.000000 -0.749043 0.320328 0.703624 0.000000 0.000000 0.000000 0.389104 0.205841 40.297817 -0.000000 0.000000 0.000000 2.910743 3.573227 -0.915944 0.000000 0.000000 0.000000
-33.609140 83.330113 341.093582 -0.488153 0.108886 -40.275552 0.442826 0.232500 40.275117 -0.000000 0.000000 0.000000 -0.000000 0.000000 0.000000 0.000000 0.000000 0.000000 -1.059545 -0.027311 0.284959 1.059667 0.022037 -0.285415 6.366203 4.662584 1.199466 -2.437725 -6.117013 -1.613467 0.000000 0.000000 0.000000 0.000000 0.000000 0.000000 -0.000000 0.000000 0.000000 -0.000000 0.000000 0.000000 2.653768 3.428695 -0.270141 -11.234901 -2.416592 -0.005789 0.000000 0.000000 0.000000 0.000000 0.000000 0.000000 0.442826 0.232500 40.275117 -0.000000 0.000000 0.000000 -0.795703 0.514720 0.773918 0.000000 0.000000 0.000000 0.442826 0.232500 40.275117 -0.000000 0.000000 0.000000 3.234452 4.053876 -1.010027 0.000000 0.000000 0.000000
-33.614125 83.326322 341.100915 -0.507378 0.154386 -40.267716 0.486935 0.210148 40.267506 -0.000000 0.000000 0.000000 -0.000000 0.000000 0.000000 0.000000 0.000000 0.000000 -1.021487 -0.016870 0.272278 1.021556 0.012013 -0.272535 7.741265 5.960826 1.373300 -2.434996 -8.182404 -1.853713 0.000000 0.000000 0.000000 0.000000 0.000000 0.000000 -0.000000 0.000000 0.000000 -0.000000 0.000000 0.000000 3.458144 3.882823 -0.296633 -12.169395 -3.829932 -0.085291 0.000000 0.000000 0.000000 0.000000 0.000000 0.000000 0.486935 0.210148 40.267506 -0.000000 0.000000 0.000000 -0.747633 0.809479 0.776193 0.000000 0.000000 0.000000 0.486935 0.210148 40.267506 -0.000000 0.000000 0.000000 3.633759 4.996024 -1.062408 0.000000 0.000000 0.000000
-33.593574 83.342625 341.150254 -0.509386 0.148874 -40.296574 0.484796 0.215896 40.296323 -0.000000 0.000000 0.000000 -0.000000 0.000000 0.000000 0.000000 0.000000 0.000000 -0.924103 -0.002094 0.242927 1.739837 -0.192065 -0.448718 8.414643 7.061066 1.750930 -2.478466 -10.378664 -2.001003 0.000000 0.000000 0.000000 0.000000 0.000000 0.000000 -0.000000 0.000000 0.000000 -0.000000 0.000000 0.000000 4.911594 5.416572 -0.477336 -13.438966 -6.166352 -0.327895 0.000000 0.000000 0.000000 0.000000 0.000000 0.000000 0.484796 0.215896 40.296323 -0.000000 0.000000 0.000000 -0.639357 1.202400 0.740036 0.000000 0.000000 0.000000 0.484796 0.215896 40.296323 -0.000000 0.000000 0.000000 3.591568 5.067491 -1.024010 0.000000 0.000000 0.000000
-33.551683 83.386101 341.227005 -0.474520 0.098371 -40.498483 0.424722 0.233362 40.498026 -0.000000 0.000000 0.000000 -0.000000 0.000000 0.000000 0.000000 0.000000 0.000000 -0.901830 0.009219 0.234123 2.354126 -0.167973 -0.608083 9.253990 7.865131 2.104818 -2.784137 -12.230131 -2.158770 0.000000 0.000000 0.000000 0.000000 0.000000 0.000000 -0.000000 0.000000 0.000000 -0.000000 0.000000 0.000000 6.792086 6.510005 -0.610530 -14.827660 -7.189150 -0.633614 0.000000 0.000000 0.000000 0.000000 0.000000 0.000000 0.424722 0.233362 40.498026 -0.000000 0.000000 0.000000 -0.676611 1.518665 0.819839 0.000000 0.000000 0.000000 0.424722 0.233362 40.498026 -0.000000 0.000000 0.000000 3.253550 4.450876 -0.944185 0.000000 0.000000 0.000000
-33.510866 83.438752 341.312595 -0.482411 0.047838 -40.754570 0.396665 0.278689 40.753807 -0.000000 0.000000 0.000000 -0.000000 0.000000 0.000000 0.000000 0.000000 0.000000 -0.915146 0.013311 0.236534 3.221707 -0.017355 -0.843564 9.553618 8.453665 2.488055 -2.917091 -12.402015 -2.513954 0.000000 0.000000 0.000000 0.000000 0.000000 0.000000 -0.000000 0.000000 0.000000 -0.000000 0.000000 0.000000 8.887650 7.390394 -0.735486 -15.522586 -7.594427 -0.916360 0.000000 0.000000 0.000000 0.000000 0.000000 0.000000 0.396665 0.278689 40.753807 -0.000000 0.000000 0.000000 -0.611540 1.647517 0.781787 0.000000 0.000000 0.000000 0.396665 0.278689 40.753807 -0.000000 0.000000 0.000000 1.930997 2.615816 -0.541973 0.000000 0.000000 0.000000
-33.421237 83.506865 341.383086 -0.494142 0.035114 -40.962604 0.396168 0.297426 40.961727 -0.000000 0.000000 0.000000 -0.812556 0.276705 0.177050 0.000000 0.000000 0.000000 -0.925558 0.017557 0.238145 3.739971 -0.146157 -0.970825 10.332984 10.020139 2.638547 -3.125713 -12.855824 -2.944638 0.000000 0.000000 0.000000 0.000000 0.000000 0.000000 -0.000000 0.000000 0.000000 0.042672 1.013813 0.035861 11.304132 6.864767 -0.635569 -15.914504 -6.594900 -1.246314 0.000000 0.000000 0.000000 0.000000 0.000000 0.000000 0.396168 0.297426 40.961727 -0.000000 0.000000 0.000000 -0.107957 1.692263 0.346187 0.000000 0.000000 0.000000 0.396168 0.297426 40.961727 -0.000000 0.000000 0.000000 1.870985 2.674379 -0.495369 0.000000 0.000000 0.000000
-33.369883 83.603458 341.406020 -0.643962 0.088699 -41.546680 -0.133049 -0.230072 41.520504 0.026197 -0.066036 -0.034524 -0.714621 0.693096 0.374207 0.000000 0.000000 0.000000 -0.262627 0.245904 0.309135 5.540866 0.361044 -1.436124 10.190036 11.905637 3.152155 -2.356890 -16.530319 -2.748827 0.000000 0.000000 0.000000 0.000000 0.000000 0.000000 0.869897 0.062205 0.059293 0.296192 1.657455 0.037028 13.645985 5.905920 -0.326301 -15.660881 -5.543023 -1.478352 0.000000 0.000000 0.000000 0.000000 0.000000 0.000000 0.540784 0.360709 41.545476 -0.000000 0.000000 0.000000 -2.761269 -0.916610 2.276471 0.000000 0.000000 0.000000 0.540784 0.360709 41.545476 -0.000000 0.000000 0.000000 2.757789 4.321502 -0.679457 0.000000 0.000000 0.000000
-33.339548 83.688220 341.510769 -0.934363 0.042616 -42.180547 -0.313660 -0.334281 42.139548 -0.081256 -0.083912 -0.062536 -1.243235 1.046645 0.689287 0.000000 0.000000 0.000000 -0.135345 0.532005 0.406979 8.091741 1.510981 -2.137634 10.543527 14.395216 3.902695 -0.588359 -19.349921 -2.745716 0.000000 0.000000 0.000000 0.000000 0.000000 0.000000 1.472427 0.080951 0.100373 0.640250 2.347737 0.027942 15.382107 4.221731 0.222950 -13.487405 -1.469928 -1.964763 0.000000 0.000000 0.000000 0.000000 0.000000 0.000000 0.721032 0.595803 42.177146 -0.000000 0.000000 0.000000 -2.160766 -0.591002 1.800803 0.000000 0.000000 0.000000 0.721032 0.595803 42.177146 -0.000000 0.000000 0.000000 2.485824 5.203636 -0.345928 0.000000 0.000000 0.000000
-33.395225 83.767684 341.720872 -1.401572 -0.124506 -42.796815 -0.537111 -0.331908 42.737870 -0.230780 -0.086990 -0.099067 -1.624829 1.301097 1.063465 0.000000 0.000000 0.000000 0.055253 0.764165 0.561635 10.877853 2.919545 -2.973311 11.942070 18.409744 4.514832 0.009307 -23.652220 -2.611719 0.000000 0.000000 0.000000 0.000000 0.000000 0.000000 0.971938 -0.102241 -0.045943 2.621883 3.441770 0.174036 15.353646 2.287842 0.815853 -7.938813 4.111843 -2.982495 0.000000 0.000000 0.000000 0.000000 0.000000 0.000000 0.943961 1.043522 42.786696 -0.000000 0.000000 0.000000 3.278493 4.159838 -2.275273 0.000000 0.000000 0.000000 0.943961 1.043522 42.786696 0.992091 0.975382 -0.032223 1.340993 5.626459 0.071077 0.000000 0.000000 0.000000
-33.535888 83.701476 342.067555 -2.162678 -0.392091 -43.017421 -0.711204 -0.388508 42.929951 -0.355066 -0.130223 -0.145014 -2.199854 1.391799 1.760529 0.000000 0.000000 0.000000 -0.146752 1.644667 0.815921 16.137232 5.199786 -4.510462 13.800493 22.228446 5.916590 0.336904 -25.974076 -3.289405 0.000000 0.000000 0.000000 0.000000 0.000000 0.000000 0.988622 -1.036544 -0.254373 3.909459 5.091490 0.354356 15.347134 0.034288 1.457374 -4.068028 10.064564 -4.525225 0.000000 0.000000 0.000000 0.000000 0.000000 0.000000 2.064430 2.877291 42.648081 -1.307111 -0.312273 0.307807 7.679418 8.110693 -5.630720 0.000000 0.000000 0.000000 1.363671 2.762958 42.897392 -0.360880 0.495297 -0.133560 1.791595 5.859754 0.462946 0.000000 0.000000 0.000000
